<svg width="18" height="14" viewBox="0 0 18 14" fill="none" xmlns="http://www.w3.org/2000/svg">
<g clip-path="url(#clip0)">
<path d="M11.6579 12.7918H6.34229V2.07556L6.4625 1.99433C7.21027 1.4827 8.09378 1.20911 8.9982 1.20911C9.90261 1.20911 10.7861 1.4827 11.5339 1.99433L11.6522 2.07556L11.6579 12.7918Z" fill="#FFEE00"/>
<path fill-rule="evenodd" clip-rule="evenodd" d="M6.62403 2.22642V12.5084H11.376L11.3706 2.22519C10.6706 1.74767 9.84413 1.49236 8.9982 1.49236C8.15154 1.49236 7.32442 1.74811 6.62403 2.22642ZM6.30471 1.75949C7.09907 1.21619 8.03753 0.925659 8.9982 0.925659C9.95915 0.925659 10.8979 1.21635 11.6924 1.75996L11.6927 1.76021L11.9339 1.92575L11.9398 13.0751H6.06055V1.92447L6.30471 1.75949Z" fill="black" stroke="black" stroke-width="0.5" stroke-miterlimit="10"/>
<path d="M14.7569 12.7916H11.6577V5.53224L11.7779 5.46046C12.546 5.00433 13.4216 4.76373 14.3136 4.76373C15.2056 4.76373 16.0813 5.00433 16.8493 5.46046L16.9695 5.53224L14.7569 12.7916Z" fill="#FFEE00"/>
<path fill-rule="evenodd" clip-rule="evenodd" d="M11.939 5.69355V12.5082H14.5481L16.6345 5.66297C15.9271 5.25945 15.1273 5.04698 14.3131 5.04698C13.4786 5.04698 12.6592 5.27019 11.939 5.69355ZM11.6342 5.21638C12.4456 4.73447 13.3708 4.48029 14.3131 4.48029C15.2555 4.48029 16.1806 4.73447 16.9921 5.21638L16.9927 5.21672L17.3033 5.40222L14.9647 13.0749H11.3755V5.37085L11.6342 5.21638Z" fill="black" stroke="black" stroke-width="0.5" stroke-miterlimit="10"/>
<path d="M3.2379 12.7915H6.34273V5.53212L6.22439 5.46034C5.4562 5.00459 4.5806 4.76421 3.6887 4.76421C2.7968 4.76421 1.9212 5.00459 1.153 5.46034L1.03467 5.53212L3.2379 12.7915Z" fill="#FFEE00"/>
<path fill-rule="evenodd" clip-rule="evenodd" d="M1.00994 5.21651C1.82151 4.73503 2.74654 4.48108 3.68879 4.48108C4.63104 4.48108 5.55608 4.73503 6.36764 5.21651L6.36883 5.21721L6.62456 5.37235V13.0751H3.02942L0.701172 5.4038L1.00876 5.21721L1.00994 5.21651ZM1.36882 5.66242L3.44658 12.5084H6.06108V5.69265C5.34113 5.27039 4.52251 5.04778 3.68879 5.04778C2.8752 5.04778 2.07598 5.25977 1.36882 5.66242Z" fill="black" stroke="black" stroke-width="0.5" stroke-miterlimit="10"/>
</g>
<defs>
<clipPath id="clip0">
<rect width="18" height="13.5" fill="white" transform="translate(0 0.25)"/>
</clipPath>
</defs>
</svg>
