<svg width="32" height="32" viewBox="0 0 24 25" fill="none" xmlns="http://www.w3.org/2000/svg">
<g clip-path="url(#clip0)">
<path d="M12 24.929C18.6274 24.929 24 19.5564 24 12.929C24 6.30154 18.6274 0.928955 12 0.928955C5.37258 0.928955 0 6.30154 0 12.929C0 19.5564 5.37258 24.929 12 24.929Z" fill="url(#paint0_linear)"/>
<path d="M5.43104 12.8022C8.92928 11.2781 11.262 10.2733 12.4292 9.78784C15.7617 8.40173 16.4542 8.16094 16.9055 8.15291C17.0048 8.15125 17.2267 8.17585 17.3705 8.29251C17.4919 8.39102 17.5253 8.52409 17.5413 8.61748C17.5573 8.71088 17.5772 8.92364 17.5614 9.08988C17.3808 10.9874 16.5994 15.5921 16.2018 17.7173C16.0336 18.6165 15.7024 18.918 15.3817 18.9476C14.6849 19.0117 14.1557 18.487 13.4808 18.0446C12.4246 17.3523 11.8279 16.9213 10.8028 16.2457C9.61798 15.465 10.386 15.0358 11.0612 14.3346C11.2379 14.151 14.3083 11.3583 14.3677 11.1049C14.3752 11.0732 14.3821 10.9551 14.3119 10.8928C14.2417 10.8304 14.1382 10.8517 14.0635 10.8687C13.9575 10.8927 12.2703 12.0079 9.00179 14.2143C8.52287 14.5431 8.08909 14.7033 7.70043 14.6949C7.27197 14.6857 6.44778 14.4527 5.83508 14.2535C5.08358 14.0092 4.4863 13.8801 4.53831 13.4652C4.5654 13.2491 4.86298 13.0281 5.43104 12.8022Z" fill="white"/>
</g>
<defs>
<linearGradient id="paint0_linear" x1="12" y1="0.928955" x2="12" y2="24.7509" gradientUnits="userSpaceOnUse">
<stop stop-color="#2AABEE"/>
<stop offset="1" stop-color="#229ED9"/>
</linearGradient>
<clipPath id="clip0">
<rect width="24" height="24" fill="white" transform="translate(0 0.928955)"/>
</clipPath>
</defs>
</svg>
