<svg width="32" height="32" viewBox="0 0 24 25" fill="none" xmlns="http://www.w3.org/2000/svg">
<g clip-path="url(#clip0)">
<path d="M11.9165 0.928955C5.34576 0.928955 0 6.27472 0 12.8454C0 19.4157 5.34576 24.7619 11.9165 24.7619C18.4867 24.7619 23.833 19.4157 23.833 12.8454C23.833 6.27472 18.4877 0.928955 11.9165 0.928955ZM17.2325 10.1181C17.2378 10.2362 17.2406 10.3552 17.2406 10.4742C17.2406 14.0987 14.4826 18.2766 9.43632 18.2766C7.88736 18.2766 6.44544 17.824 5.232 17.0454C5.44656 17.0709 5.66496 17.0838 5.88624 17.0838C7.17168 17.0838 8.35392 16.6451 9.2928 15.9098C8.0928 15.8877 7.07952 15.0947 6.73056 14.0046C6.8976 14.0363 7.06992 14.0541 7.24608 14.0541C7.49616 14.0541 7.73904 14.0214 7.96896 13.9586C6.71424 13.707 5.76912 12.5987 5.76912 11.2691C5.76912 11.2576 5.76912 11.2456 5.7696 11.2346C6.1392 11.4395 6.56208 11.5634 7.01136 11.5773C6.276 11.0862 5.79168 10.2462 5.79168 9.29488C5.79168 8.79184 5.92656 8.32047 6.16272 7.91535C7.51488 9.57519 9.53664 10.6667 11.8157 10.7819C11.7686 10.5808 11.7451 10.372 11.7451 10.1565C11.7451 8.64208 12.973 7.41376 14.4874 7.41376C15.2765 7.41376 15.9883 7.74687 16.4894 8.27967C17.1149 8.15679 17.7005 7.92927 18.2318 7.61391C18.0254 8.25471 17.592 8.79184 17.0242 9.13168C17.5795 9.06544 18.1094 8.91856 18.5995 8.70016C18.2338 9.24927 17.7686 9.73264 17.2325 10.1181Z" fill="#38A1F3"/>
</g>
<defs>
<clipPath id="clip0">
<rect width="24" height="24" fill="white" transform="translate(0 0.928955)"/>
</clipPath>
</defs>
</svg>
