<svg width="40" height="40" viewBox="0 0 40 40" fill="none" xmlns="http://www.w3.org/2000/svg">
<g clip-path="url(#clip0_11878:55128)">
<rect x="10" y="6.66699" width="14.1667" height="11.6667" fill="#FFE300"/>
<path d="M34.832 9.01172H27.6924V22.1985H8.35181V31.8688H12.0526C12.6281 33.8958 14.4945 35.3853 16.7034 35.3853C18.9124 35.3853 20.7787 33.8959 21.3544 31.8688H26.9977C27.5733 33.8958 29.4397 35.3853 31.6487 35.3853C33.8577 35.3853 35.7239 33.8959 36.2995 31.8688H40.0001V24.8359V22.1985V14.1798L34.832 9.01172ZM16.7034 32.748C15.4915 32.748 14.5056 31.762 14.5056 30.5502C14.5056 29.3383 15.4915 28.3523 16.7034 28.3523C17.9152 28.3523 18.9012 29.3383 18.9012 30.5502C18.9012 31.762 17.9152 32.748 16.7034 32.748ZM31.6484 32.748C30.4366 32.748 29.4506 31.762 29.4506 30.5502C29.4506 29.3383 30.4366 28.3523 31.6484 28.3523C32.8603 28.3523 33.8463 29.3383 33.8463 30.5502C33.8463 31.762 32.8603 32.748 31.6484 32.748ZM37.3627 29.2315H36.2993C35.7238 27.2045 33.8573 25.715 31.6484 25.715C29.4395 25.715 27.5732 27.2045 26.9975 29.2315H21.3541C20.7786 27.2045 18.9122 25.715 16.7032 25.715C14.4942 25.715 12.628 27.2045 12.0524 29.2315H10.9891V24.8359H27.6923H37.3627V29.2315H37.3627ZM37.3627 22.1985H30.3298V11.6491H33.7396L37.3627 15.2722V22.1985Z" fill="#202124"/>
<path d="M8.35168 4.61523V19.5603H25.055V4.61523H8.35168ZM15.3847 16.9229H10.989V7.25258H15.3847V16.9229ZM22.4176 16.9229H18.022V7.25258H22.4176V16.9229Z" fill="#202124"/>
<path d="M6.15383 4.61523H0V7.25258H6.15383V4.61523Z" fill="#202124"/>
<path d="M6.1538 10.7695H1.75818V13.4069H6.1538V10.7695Z" fill="#202124"/>
<path d="M6.15382 16.9229H3.51648V19.5602H6.15382V16.9229Z" fill="#202124"/>
</g>
<defs>
<clipPath id="clip0_11878:55128">
<rect width="40" height="40" fill="white"/>
</clipPath>
</defs>
</svg>
