<svg xmlns="http://www.w3.org/2000/svg" xmlns:xlink="http://www.w3.org/1999/xlink" preserveAspectRatio="xMidYMid meet" width="20" height="20" viewBox="0 0 20 20" style="width:100%;height:100%"><defs><animateTransform repeatCount="indefinite" dur="2.1s" begin="0s" xlink:href="#_R_G_L_2_G" fill="freeze" attributeName="transform" from="0 0" to="1 1" type="scale" additive="sum" keyTimes="0;0.1111111;1" values="0 0;1 1;1 1" keySplines="0.167 0.167 0.667 1;0 0 0 0" calcMode="spline"/><animate repeatCount="indefinite" dur="2.1s" begin="0s" xlink:href="#_R_G_L_2_G_M" fill="freeze" attributeName="opacity" from="1" to="0" keyTimes="0;0.3333333;0.3333333;1" values="1;1;0;0" keySplines="0 0 0 0;0 0 0 0;0 0 0 0" calcMode="spline"/><animateTransform repeatCount="indefinite" dur="2.1s" begin="0s" xlink:href="#_R_G_L_1_G" fill="freeze" attributeName="transform" from="0 0" to="-1 -1" type="scale" additive="sum" keyTimes="0;0.3333333;0.4444444;1" values="0 0;0 0;-1 -1;-1 -1" keySplines="0.167 0.167 0.667 1;0.167 0.167 0.667 1;0 0 0 0" calcMode="spline"/><animate repeatCount="indefinite" dur="2.1s" begin="0s" xlink:href="#_R_G_L_1_G_M" fill="freeze" attributeName="opacity" from="0" to="0" keyTimes="0;0.3333333;0.3333349;0.6666667;0.6666667;1" values="0;0;1;1;0;0" keySplines="0 0 0 0;0 0 0 0;0 0 0 0;0 0 0 0;0 0 0 0" calcMode="spline"/><clipPath id="_R_G_L_0_G_L_2_C_0"><path id="_R_G_L_0_G_L_2_C_0_P_0" fill-rule="nonzero" d="M18.88 8.13 C18.88,8.13 1.25,8.13 1.25,8.13 C1.25,8.13 1.25,18.69 1.25,18.69 C1.25,18.69 18.88,18.69 18.88,18.69 C18.88,18.69 18.88,8.13 18.88,8.13z "/></clipPath><animate repeatCount="indefinite" dur="2.1s" begin="0s" xlink:href="#_R_G_L_0_G_L_2_G_M" fill="freeze" attributeName="opacity" from="0" to="1" keyTimes="0;0.6666667;0.6666667;0.6666683;1" values="0;0;0;1;1" keySplines="0 0 0 0;0 0 0 0;0 0 0 0;0 0 0 0" calcMode="spline"/><clipPath id="_R_G_L_0_G_L_1_C_0"><path id="_R_G_L_0_G_L_1_C_0_P_0" fill-rule="nonzero" d="M18.88 2.56 C18.88,2.56 1.25,2.56 1.25,2.56 C1.25,2.56 1.25,7.69 1.25,7.69 C1.25,7.69 18.88,7.69 18.88,7.69 C18.88,7.69 18.88,2.56 18.88,2.56z "/></clipPath><animate repeatCount="indefinite" dur="2.1s" begin="0s" xlink:href="#_R_G_L_0_G_L_1_G_M" fill="freeze" attributeName="opacity" from="0" to="1" keyTimes="0;0.6666667;0.6666667;0.6666683;1" values="0;0;0;1;1" keySplines="0 0 0 0;0 0 0 0;0 0 0 0;0 0 0 0" calcMode="spline"/><clipPath id="_R_G_L_0_G_L_0_C_0"><path id="_R_G_L_0_G_L_0_C_0_P_0" fill-rule="nonzero" d="M12.16 1.16 C12.16,1.16 7.69,1.16 7.69,1.16 C7.69,1.16 7.69,18.78 7.69,18.78 C7.69,18.78 12.16,18.78 12.16,18.78 C12.16,18.78 12.16,1.16 12.16,1.16z "/></clipPath><animate repeatCount="indefinite" dur="2.1s" begin="0s" xlink:href="#_R_G_L_0_G_L_0_G_M" fill="freeze" attributeName="opacity" from="0" to="1" keyTimes="0;0.6666667;0.6666667;0.6666683;1" values="0;0;0;1;1" keySplines="0 0 0 0;0 0 0 0;0 0 0 0;0 0 0 0" calcMode="spline"/><animateTransform repeatCount="indefinite" dur="2.1s" begin="0s" xlink:href="#_R_G_L_0_G" fill="freeze" attributeName="transform" from="0 0" to="0.8 0.8" type="scale" additive="sum" keyTimes="0;0.6666667;0.7777778;1" values="0 0;0 0;0.8 0.8;0.8 0.8" keySplines="0.167 0.167 0.667 1;0.167 0.167 0.667 1;0 0 0 0" calcMode="spline"/><animateTransform repeatCount="indefinite" dur="2.1s" begin="0s" xlink:href="#_R_G_L_0_G" fill="freeze" attributeName="transform" from="-10 -10" to="-10 -10" type="translate" additive="sum" keyTimes="0;1" values="-10 -10;-10 -10" keySplines="0 0 1 1" calcMode="spline"/><animate repeatCount="indefinite" dur="2.1s" begin="0s" xlink:href="#_R_G_L_0_G_M" fill="freeze" attributeName="opacity" from="0" to="1" keyTimes="0;0.6666667;0.6666683;1" values="0;0;1;1" keySplines="0 0 0 0;0 0 0 0;0 0 0 0" calcMode="spline"/><animate attributeType="XML" attributeName="opacity" dur="2s" from="0" to="1" xlink:href="#time_group"/></defs><g id="_R_G"><g id="_R_G_L_2_G_M"><g id="_R_G_L_2_G" transform=" translate(10, 10)"><path id="_R_G_L_2_G_D_0_P_0" fill="#ff7823" fill-opacity="1" fill-rule="nonzero" d=" M8.97 -5.81 C8.97,-5.81 -4.06,-5.81 -4.06,-5.81 C-4.06,-5.81 -4.06,-1.25 -4.06,-1.25 C-4.06,-1.25 -9.12,-1.25 -9.12,-1.25 C-9.12,-1.25 -4.12,2.28 -4.12,2.28 C-4.12,2.28 -4.12,7.03 -4.12,7.03 C-4.12,7.03 8.97,7.06 8.97,7.06 C8.97,7.06 8.97,-5.81 8.97,-5.81z "/></g></g><g id="_R_G_L_1_G_M"><g id="_R_G_L_1_G" transform=" translate(10, 10)"><path id="_R_G_L_1_G_D_0_P_0" fill="#7747ff" fill-opacity="1" fill-rule="nonzero" d=" M8.97 -5.81 C8.97,-5.81 -4.06,-5.81 -4.06,-5.81 C-4.06,-5.81 -4.06,-1.25 -4.06,-1.25 C-4.06,-1.25 -9.12,-1.25 -9.12,-1.25 C-9.12,-1.25 -4.12,2.28 -4.12,2.28 C-4.12,2.28 -4.12,7.03 -4.12,7.03 C-4.12,7.03 8.97,7.06 8.97,7.06 C8.97,7.06 8.97,-5.81 8.97,-5.81z "/></g></g><g id="_R_G_L_0_G_M"><g id="_R_G_L_0_G" transform=" translate(10, 9.5)"><g id="_R_G_L_0_G_L_2_G_M"><g id="_R_G_L_0_G_L_2_G"><g clip-path="url(#_R_G_L_0_G_L_2_C_0)"><rect id="_R_G_L_0_G_L_2_G_G_0_S" fill="#3357d5" width="20" height="20"/></g></g></g><g id="_R_G_L_0_G_L_1_G_M"><g id="_R_G_L_0_G_L_1_G"><g clip-path="url(#_R_G_L_0_G_L_1_C_0)"><rect id="_R_G_L_0_G_L_1_G_G_0_S" fill="#47b3ff" width="20" height="20"/></g></g></g><g id="_R_G_L_0_G_L_0_G_M"><g id="_R_G_L_0_G_L_0_G"><g clip-path="url(#_R_G_L_0_G_L_0_C_0)"><rect id="_R_G_L_0_G_L_0_G_G_0_S" fill="#e9bf3d" width="20" height="20"/></g></g></g></g></g></g><g id="time_group"/></svg>