<svg xmlns="http://www.w3.org/2000/svg" width="152" height="40" fill="none" viewBox="0 0 152 40">
    <rect width="152" height="40" fill="url(#paint0_linear)" rx="20"/>
    <path fill="#fff" d="M19.342 21.044h.266V22.5h-.266c-.485 0-.938-.112-1.358-.336-.41-.233-.742-.546-.994-.938-.7.121-1.204.2-1.512.238-.495.075-.99-.056-1.484-.392-.495-.345-.826-.775-.994-1.288-.215-.635-.173-1.26.126-1.876.308-.625.774-1.04 1.4-1.246l1.974-.658v-.588h1.302v4.158c0 .41.15.76.448 1.05.299.28.663.42 1.092.42zm-3.962-1.022l1.134-.182c-.01-.056-.014-.145-.014-.266v-2.142l-1.568.546c-.299.093-.514.266-.644.518-.122.243-.145.5-.07.77.065.233.21.43.434.588.233.159.476.215.728.168zm12.801 1.022h.91V22.5h-.91c-.457 0-.877-.126-1.26-.378-.373-.261-.653-.597-.84-1.008l-2.38.756c-1.363.42-2.749.63-4.158.63h-.07v-1.456h.07c1.204 0 2.464-.187 3.78-.56l3.15-.896-2.73-1.358c-.41-.215-.812-.261-1.204-.14-.383.121-.69.378-.924.77l-.252.448-1.134-.7.266-.49c.448-.747 1.027-1.223 1.736-1.428.719-.215 1.437-.121 2.156.28l3.598 1.96-.21 1.652-.392.126c.205.224.471.336.798.336zm-5.53 2.436l.966.966-.966.952-.952-.952.952-.966zm1.596.966l.952-.966.966.966-.966.952-.952-.952zm-1.134 1.792l.826-.812.812.812-.812.826-.826-.826zm12.4-6.328c.02.355.14.635.365.84.224.196.532.294.924.294V22.5c-.766 0-1.363-.257-1.792-.77-.215.373-.523.63-.924.77-.402.13-.817.093-1.246-.112l-1.722-.882c-.514.663-1.186.994-2.016.994h-.154v-1.456h.154c.597 0 1.017-.238 1.26-.714l1.036-1.974c.289-.55.704-.915 1.246-1.092.55-.187 1.092-.135 1.624.154.41.224.723.56.938 1.008.224.439.326.933.308 1.484zm-1.497 1.162c.26-.495.378-.97.35-1.428-.028-.467-.215-.793-.56-.98-.262-.14-.532-.154-.812-.042-.271.112-.49.331-.658.658l-.532 1.036 1.75.896c.205.103.359.056.462-.14zm7.333-1.064c.037.392.135.663.294.812.158.15.443.224.853.224V22.5c-.774 0-1.362-.215-1.764-.644-.457.43-1.063.644-1.82.644h-2.254v-1.456h2.255c.429 0 .732-.075.91-.224.177-.15.252-.383.224-.7l-.154-1.722 1.301-.126.154 1.722v.014zm-4.452 4.55l.965-.966.953.966-.953.952-.965-.952zm2.547 0l.966-.966.967.966-.967.952-.965-.952zm4.694-8.596l-.952-.952.952-.966.966.966-.966.952zm2.562 0l-.966-.952.966-.966.966.966-.966.952zM42.36 22.5v-1.456h2.072c.541 0 .933-.117 1.176-.35.242-.243.284-.663.126-1.26l-.546-2.086 1.26-.364.56 2.156c.28 1.027.154 1.843-.378 2.45-.523.607-1.256.91-2.198.91H42.36zm14.683-5.096c.644.345 1.041.938 1.19 1.778.16.83.024 1.652-.406 2.464-.224.41-.54.69-.952.84-.41.14-.826.107-1.246-.098l-2.352-1.218.252 5.488-1.302.042-.252-6.706.882-.588.616.322.714-1.4c.28-.541.696-.896 1.246-1.064.551-.177 1.088-.13 1.61.14zm-.238 3.654c.262-.504.374-.98.336-1.428-.028-.457-.214-.78-.56-.966-.26-.14-.532-.154-.812-.042-.27.112-.49.331-.658.658l-.518 1.022 1.736.896c.215.103.374.056.476-.14zm3.665 1.484l-.364-9.394 1.302-.07.35 9.408-1.288.056zm6.474-1.498h.098V22.5h-.098c-.234 0-.425-.019-.574-.056.046.448.014.85-.098 1.204-.103.355-.252.649-.448.882-.187.243-.462.462-.826.658-.355.205-.71.369-1.064.49-.355.121-.798.257-1.33.406l-.336-1.4c1.1-.299 1.792-.527 2.072-.686.532-.29.784-.737.756-1.344-.01-.065-.02-.14-.028-.224l-.56-4.032 1.288-.196.182 1.4c.102.607.214.999.336 1.176.12.177.33.266.63.266zm4.633-9.17l-3.402 1.232-.336-.91 3.416-1.232.322.91zm-2.534 3.5l2.464 3.598c.326.532.485 1.055.476 1.568-.01.513-.182.943-.518 1.288-.374.448-.915.672-1.624.672H66.9v-1.456h2.954c.214 0 .382-.047.504-.14.168-.121.266-.28.294-.476.037-.205-.005-.401-.126-.588l-3.108-4.396.294-1.092 5.054-1.862.462 1.358-4.186 1.526zm8.626 7.126c-.924 0-1.573-.215-1.946-.644-.374-.43-.584-1.185-.63-2.268l-.252-6.44 1.302-.056.252 6.496c.018.635.098 1.036.238 1.204.149.168.494.252 1.036.252h.14V22.5h-.14zm2.54-6.412l-.967.952-.966-.952.966-.966.966.966zm2.547 0l-.966.952-.952-.952.952-.966.966.966zm-.392 3.92c.037.392.135.663.294.812.159.15.444.224.854.224V22.5c-.775 0-1.362-.215-1.764-.644-.457.43-1.064.644-1.82.644h-2.254v-1.456h2.254c.43 0 .733-.075.91-.224.178-.15.252-.383.224-.7l-.154-1.722 1.302-.126.154 1.722v.014zm10.601-.238c.103.383.304.69.602.924.299.233.644.35 1.036.35V22.5c-.793 0-1.456-.294-1.988-.882-.429.588-1.068.882-1.918.882-.709 0-1.283-.27-1.722-.812-.429.541-1.031.812-1.806.812-.7 0-1.255-.27-1.666-.812-.448.541-1.04.812-1.778.812h-.35v-1.456h.35c.448 0 .752-.093.91-.28.159-.187.238-.425.238-.714v-1.722h1.218v1.722c0 .075.01.154.028.238.019.075.056.177.112.308.066.13.178.238.336.322.159.084.36.126.602.126.448 0 .747-.089.896-.266.159-.187.238-.43.238-.728v-1.722h1.218v1.736c0 .037.005.084.014.14.01.056.033.14.07.252.047.103.103.196.168.28.075.075.182.145.322.21.15.056.322.084.518.084.486 0 .817-.098.994-.294.178-.196.229-.434.154-.714L91.3 18.3l1.176-.35.462 1.722c0 .01.005.028.014.056.01.019.014.033.014.042zm4.48-3.696l-1.078 1.078-1.092-1.078 1.092-1.092 1.078 1.092zm.336 3.934c.037.392.135.663.294.812.159.15.444.224.854.224V22.5c-.765 0-1.353-.21-1.764-.63-.439.42-1.045.63-1.82.63h-.882v-1.456h.882c.43 0 .733-.07.91-.21.178-.15.257-.378.238-.686v-.028l-.154-1.722 1.288-.126.154 1.722v.014zm1.002 2.492v-1.456h2.073c.541 0 .933-.117 1.176-.35.242-.243.284-.663.126-1.26l-.546-2.086 1.26-.364.56 2.156c.28 1.027.154 1.843-.378 2.45-.523.607-1.256.91-2.198.91h-2.072zm.197 2.996l-.953-.952.953-.966.965.966-.965.952zm2.562 0l-.966-.952.966-.966.966.966-.966.952zm4.196-2.954l-.364-9.394 1.302-.07.35 9.408-1.288.056zM133.75 10h-7.5c-3.451 0-6.25 2.799-6.25 6.25v7.5c0 3.451 2.799 6.25 6.25 6.25h7.5c3.451 0 6.25-2.799 6.25-6.25v-7.5c0-3.451-2.799-6.25-6.25-6.25zm4.375 13.75c0 2.413-1.962 4.375-4.375 4.375h-7.5c-2.412 0-4.375-1.962-4.375-4.375v-7.5c0-2.412 1.963-4.375 4.375-4.375h7.5c2.413 0 4.375 1.963 4.375 4.375v7.5z"/>
    <path fill="#fff" d="M130 15c-2.761 0-5 2.239-5 5s2.239 5 5 5 5-2.239 5-5-2.239-5-5-5zm0 8.125c-1.723 0-3.125-1.402-3.125-3.125 0-1.724 1.402-3.125 3.125-3.125 1.722 0 3.125 1.401 3.125 3.125 0 1.723-1.403 3.125-3.125 3.125zM135.417 15.834c.69 0 1.25-.56 1.25-1.25s-.56-1.25-1.25-1.25c-.691 0-1.25.56-1.25 1.25s.559 1.25 1.25 1.25z"/>
    <defs>
        <linearGradient id="paint0_linear" x1="-58.062" x2="-7.785" y1="20" y2="-69.63" gradientUnits="userSpaceOnUse">
            <stop stop-color="#FFC107"/>
            <stop offset=".507" stop-color="#F44336"/>
            <stop offset=".99" stop-color="#9C27B0"/>
        </linearGradient>
    </defs>
</svg>
