<svg width="80" height="80" viewBox="0 0 80 80" fill="none" xmlns="http://www.w3.org/2000/svg">
<rect x="0.5" y="0.5" width="79" height="79" rx="7.5" fill="#F5F5F5" stroke="#F0F0F0"/>
<path fill-rule="evenodd" clip-rule="evenodd" d="M52 20V12H44V28.0002H60V20H52Z" fill="#0B2C6E"/>
<path fill-rule="evenodd" clip-rule="evenodd" d="M20 36.0002V44.0002H28V52H36V36.0002H20Z" fill="#0AC974"/>
<path fill-rule="evenodd" clip-rule="evenodd" d="M44 36.0002V52H52V44.0002H59.9998V36.0002H44Z" fill="#0AC974"/>
<path fill-rule="evenodd" clip-rule="evenodd" d="M28 20H20V28.0002H36V12H28V20Z" fill="#0AC974"/>
<path fill-rule="evenodd" clip-rule="evenodd" d="M22.0151 60H20V67.3473C20 67.8939 20.4459 68.337 20.9959 68.337H26.3735V66.3344H22.0151V60Z" fill="#0B2C6E"/>
<path fill-rule="evenodd" clip-rule="evenodd" d="M40.575 65.2006L37.3284 60.5911C37.0675 60.2206 36.6411 60 36.1862 60H34.998V68.337H37.0131V63.1365L40.2597 67.746C40.5207 68.1164 40.947 68.337 41.402 68.337H42.5901V60H40.575V65.2006Z" fill="#0B2C6E"/>
<path fill-rule="evenodd" clip-rule="evenodd" d="M27.2871 67.3472C27.2871 67.8938 27.733 68.337 28.283 68.337H34.0826V66.3344H29.3022V65.1697H34.0826V63.1673H29.3022V62.0027H34.0826V60H27.2871V67.3472Z" fill="#0B2C6E"/>
<path fill-rule="evenodd" clip-rule="evenodd" d="M46.9015 66.3344H45.5188V62.0027H46.9015C48.1032 62.0027 49.0809 62.9743 49.0809 64.1685C49.0809 65.3628 48.1032 66.3344 46.9015 66.3344ZM46.8122 60H43.5039V67.3472C43.5039 67.8938 43.9497 68.337 44.4997 68.337H46.9015C49.2565 68.337 51.1646 66.398 51.094 64.0422C51.0262 61.775 49.0946 60 46.8122 60Z" fill="#0B2C6E"/>
<path fill-rule="evenodd" clip-rule="evenodd" d="M55.8058 66.3344C54.6041 66.3344 53.6265 65.3628 53.6265 64.1685C53.6265 62.9743 54.6041 62.0027 55.8058 62.0027C57.0075 62.0027 57.9851 62.9743 57.9851 64.1685C57.9851 65.3628 57.0075 66.3344 55.8058 66.3344ZM55.8058 60C53.4931 60 51.6113 61.87 51.6113 64.1685C51.6113 66.4669 53.4931 68.337 55.8058 68.337C58.1185 68.337 60.0001 66.4669 60.0001 64.1685C60.0001 61.87 58.1185 60 55.8058 60Z" fill="#0B2C6E"/>
</svg>
